<?xml version="1.0" encoding="UTF-8"?>
<svg fill='rgb(255, 255, 255)' width="700pt" height="700pt" version="1.1" viewBox="0 0 700 700" xmlns="http://www.w3.org/2000/svg" xmlns:xlink="http://www.w3.org/1999/xlink">
 <g>
  <path d="m350 162.4c-97.312 0-184.04 44.652-239.57 114.1-1.6367 2.0469-1.6367 4.9531 0 7 55.531 69.449 142.26 114.1 239.57 114.1s184.04-44.652 239.57-114.1c1.6367-2.0469 1.6367-4.9531 0-7-55.531-69.449-142.26-114.1-239.57-114.1zm-43.75 14.527c-40.066 17.059-68.25 56.816-68.25 103.07s28.184 86.016 68.25 103.07c-74.109-10.879-139.04-48.789-183.93-103.07 44.887-54.285 109.82-92.195 183.93-103.07zm87.5 0c74.109 10.879 139.04 48.789 183.93 103.07-44.887 54.285-109.82 92.195-183.93 103.07 40.066-17.059 68.25-56.816 68.25-103.07s-28.184-86.016-68.25-103.07zm-43.75 2.2734c55.738 0 100.8 45.062 100.8 100.8s-45.062 100.8-100.8 100.8-100.8-45.062-100.8-100.8 45.062-100.8 100.8-100.8zm0 50.402c-27.77 0-50.398 22.629-50.398 50.398s22.629 50.398 50.398 50.398 50.398-22.629 50.398-50.398-22.629-50.398-50.398-50.398zm0 11.199c21.715 0 39.199 17.484 39.199 39.199s-17.484 39.199-39.199 39.199-39.199-17.484-39.199-39.199 17.484-39.199 39.199-39.199z"/>
 </g>
</svg>
